# Blender 3.6.9
# www.blender.org
mtllib Black Bishop.mtl
o Bishop_2.001
v 22.584034 5.899465 -9.438505
v 22.322948 6.629710 -9.438505
v 22.108353 6.629710 -8.920424
v 22.292967 5.899465 -8.735808
v 22.322948 4.729220 -9.438505
v 22.108353 4.729220 -8.920424
v 22.292967 5.899465 -10.141202
v 22.108353 6.629710 -9.956587
v 21.590271 7.338325 -9.438505
v 21.590271 6.629710 -8.705827
v 21.590271 6.176942 -8.543948
v 21.656889 6.018466 -8.514883
v 21.590271 6.003112 -8.481799
v 21.590271 5.899465 -8.444742
v 22.175760 4.557829 -8.853013
v 22.418280 4.557829 -9.438504
v 22.108353 4.729220 -9.956587
v 21.590271 4.729220 -8.705827
v 21.590271 5.899465 -10.432268
v 21.590271 6.066720 -10.372469
v 22.036177 6.154765 -10.156290
v 21.794203 6.629710 -10.086712
v 21.438242 6.629710 -8.768799
v 21.129684 5.909955 -8.639274
v 21.059027 6.577649 -8.907262
v 20.887573 5.899465 -8.735808
v 21.590271 4.557829 -8.610496
v 22.095383 4.435772 -8.933392
v 22.304607 4.435772 -9.438504
v 22.175762 4.557829 -10.023995
v 21.590271 4.729220 -10.171183
v 21.072189 4.729220 -8.920424
v 20.887575 5.899465 -10.141202
v 21.072189 6.629710 -9.956587
v 21.335798 6.629710 -10.065777
v 21.525160 6.052071 -10.350737
v 21.590271 6.932374 -9.858242
v 21.368704 7.035274 -9.216939
v 21.059313 6.629710 -8.951510
v 20.857594 6.629710 -9.438505
v 20.596508 5.899465 -9.438505
v 21.004780 4.557829 -8.853014
v 21.590271 4.435772 -8.724168
v 22.424427 4.224946 -8.604346
v 22.769949 4.224946 -9.438503
v 22.095385 4.435772 -9.943617
v 21.590271 4.557829 -10.266515
v 21.072189 4.729220 -9.956587
v 20.857594 4.729220 -9.438505
v 21.226866 6.841272 -9.801910
v 21.431276 7.120857 -9.597500
v 21.381172 7.136094 -9.438505
v 21.126690 6.889970 -9.438505
v 20.762260 4.557829 -9.438505
v 21.085157 4.435772 -8.933393
v 21.590271 4.224946 -8.258827
v 22.072872 4.027724 -8.955903
v 22.272772 4.027724 -9.438504
v 22.424429 4.224946 -10.272662
v 21.590271 4.435772 -10.152842
v 21.004780 4.557829 -10.023996
v 20.875935 4.435772 -9.438505
v 20.756113 4.224946 -8.604347
v 21.590271 4.027724 -8.756003
v 22.296860 1.740510 -8.731914
v 22.589540 1.740510 -9.438504
v 22.072872 4.027724 -9.921105
v 21.590271 4.224946 -10.618182
v 21.085157 4.435772 -9.943618
v 20.410593 4.224946 -9.438505
v 21.107670 4.027724 -8.955904
v 21.590271 1.740510 -8.439236
v 22.823507 1.658809 -9.438503
v 22.462299 1.658809 -8.566474
v 22.296862 1.740510 -10.145095
v 21.590271 4.027724 -10.121006
v 20.756113 4.224946 -10.272663
v 20.907770 4.027724 -9.438505
v 20.883680 1.740510 -8.731915
v 21.590271 1.658809 -8.205269
v 22.962271 1.422860 -9.438503
v 22.560421 1.422860 -8.468353
v 22.462301 1.658809 -10.310534
v 21.590271 1.740510 -10.437775
v 21.107670 4.027724 -9.921106
v 20.591002 1.740510 -9.438505
v 20.718241 1.658809 -8.566476
v 21.590271 1.422860 -8.066505
v 23.482395 1.061347 -9.438503
v 22.928204 1.061347 -8.100569
v 22.560423 1.422860 -10.408655
v 21.590271 1.658809 -10.671741
v 20.883680 1.740510 -10.145096
v 20.357035 1.658809 -9.438505
v 20.620121 1.422860 -8.468354
v 21.590271 1.061347 -7.546380
v 23.115604 0.619601 -9.438503
v 22.668844 0.619601 -8.359929
v 22.928207 1.061347 -10.776439
v 21.590271 1.422860 -10.810505
v 20.718241 1.658809 -10.310534
v 20.218271 1.422860 -9.438505
v 20.252337 1.061347 -8.100571
v 21.590271 0.619601 -7.913170
v 23.362720 0.509975 -9.438503
v 22.843580 0.509975 -8.185192
v 22.668846 0.619601 -10.517078
v 21.590271 1.061347 -11.330630
v 20.620121 1.422860 -10.408655
v 19.698147 1.061347 -9.438505
v 20.511696 0.619601 -8.359931
v 21.590271 0.509975 -7.666055
v 23.590271 -0.000000 -9.438503
v 23.004482 -0.000000 -8.024289
v 22.843584 0.509975 -10.691816
v 21.590271 0.619601 -10.963840
v 20.252337 1.061347 -10.776440
v 20.064938 0.619601 -9.438505
v 20.336960 0.509975 -8.185194
v 21.590271 -0.000000 -7.438505
v 21.590273 -0.000000 -11.438505
v 23.004486 -0.000000 -10.852717
v 20.176058 -0.000000 -8.024292
v 19.590271 -0.000000 -9.438505
v 20.176058 -0.000000 -10.852719
v 21.590271 0.509975 -11.210956
v 20.511698 0.619601 -10.517079
v 19.817822 0.509975 -9.438505
v 20.336960 0.509975 -10.691817
v 21.590271 7.339115 -9.438505
v 21.789457 7.454114 -9.438505
v 21.731117 7.454114 -9.297660
v 21.590271 7.454114 -9.239319
v 21.731117 7.454114 -9.579350
v 21.789457 7.684114 -9.438505
v 21.731117 7.684114 -9.297659
v 21.449425 7.454114 -9.297660
v 21.590271 7.684114 -9.239319
v 21.590271 7.454114 -9.637691
v 21.731117 7.684114 -9.579350
v 21.590271 7.799115 -9.438505
v 21.391085 7.454114 -9.438505
v 21.449425 7.684114 -9.297660
v 21.449425 7.454114 -9.579351
v 21.590271 7.684114 -9.637691
v 21.391085 7.684114 -9.438505
v 21.449425 7.684114 -9.579351
vn 0.9983 0.0580 -0.0000
vn 0.8556 0.5176 -0.0000
vn 0.6050 0.5176 0.6050
vn 0.7059 0.0580 0.7059
vn 0.9875 0.1575 -0.0000
vn 0.6983 0.1575 0.6983
vn 0.7059 0.0580 -0.7059
vn 0.6050 0.5176 -0.6050
vn -0.0000 1.0000 -0.0000
vn -0.0000 0.5176 0.8556
vn -0.6350 -0.0888 0.7674
vn -0.4518 0.7973 0.4003
vn -0.0748 0.7369 0.6718
vn -0.0000 0.0580 0.9983
vn 0.7031 -0.1061 0.7031
vn 0.9944 -0.1061 -0.0000
vn 0.6983 0.1575 -0.6983
vn -0.0000 0.1575 0.9875
vn -0.0000 0.0580 -0.9983
vn -0.0783 0.7587 -0.6468
vn -0.4561 0.6475 -0.6106
vn -0.4394 0.1552 -0.8848
vn -0.8866 0.1536 0.4363
vn 0.0552 0.8018 0.5951
vn 0.0933 0.6062 0.7898
vn -0.7059 0.0580 0.7059
vn -0.0000 -0.1061 0.9944
vn 0.6850 0.2479 0.6850
vn 0.9688 0.2479 -0.0000
vn 0.7031 -0.1061 -0.7031
vn -0.0000 0.1575 -0.9875
vn -0.6983 0.1575 0.6983
vn -0.7059 0.0580 -0.7059
vn -0.6050 0.5176 -0.6050
vn 0.5321 0.6095 -0.5877
vn 0.0010 0.9184 -0.3957
vn -0.5533 0.2725 -0.7872
vn -0.9183 0.2598 0.2987
vn 0.0875 0.7185 0.6900
vn -0.8556 0.5176 -0.0000
vn -0.9983 0.0580 -0.0000
vn -0.7031 -0.1061 0.7031
vn -0.0000 0.2479 0.9688
vn 0.7070 -0.0196 0.7070
vn 0.9998 -0.0196 -0.0000
vn 0.6850 0.2479 -0.6850
vn -0.0000 -0.1061 -0.9944
vn -0.6983 0.1575 -0.6983
vn -0.9875 0.1575 -0.0000
vn 0.3303 0.9237 -0.1942
vn -0.8136 0.2588 -0.5207
vn -0.9595 0.2624 -0.1025
vn 0.2039 0.9627 0.1777
vn -0.9944 -0.1061 -0.0000
vn -0.6850 0.2479 0.6850
vn -0.0000 -0.0196 0.9998
vn 0.5756 -0.5809 0.5756
vn 0.8140 -0.5809 -0.0000
vn 0.7070 -0.0196 -0.7070
vn -0.0000 0.2479 -0.9688
vn -0.7031 -0.1061 -0.7031
vn -0.9688 0.2479 -0.0000
vn -0.7070 -0.0196 0.7070
vn -0.0000 -0.5809 0.8140
vn 0.5029 0.7030 0.5029
vn 0.7112 0.7030 -0.0000
vn 0.5756 -0.5809 -0.5756
vn -0.0000 -0.0196 -0.9998
vn -0.6850 0.2479 -0.6850
vn -0.9998 -0.0196 -0.0000
vn -0.5756 -0.5809 0.5756
vn -0.0000 0.7030 0.7112
vn 0.6810 0.7323 -0.0000
vn 0.4816 0.7323 0.4816
vn 0.5029 0.7030 -0.5029
vn -0.0000 -0.5809 -0.8140
vn -0.7070 -0.0196 -0.7070
vn -0.8140 -0.5809 -0.0000
vn -0.5029 0.7030 0.5029
vn -0.0000 0.7323 0.6810
vn 0.7071 0.7071 -0.0000
vn 0.5000 0.7071 0.5000
vn 0.4816 0.7323 -0.4816
vn -0.0000 0.7030 -0.7112
vn -0.5756 -0.5809 -0.5756
vn -0.7112 0.7030 -0.0000
vn -0.4816 0.7323 0.4816
vn -0.0000 0.7071 0.7071
vn 0.9934 0.1149 -0.0000
vn 0.7024 0.1149 0.7024
vn 0.5000 0.7071 -0.5000
vn -0.0000 0.7323 -0.6810
vn -0.5029 0.7030 -0.5029
vn -0.6810 0.7323 -0.0000
vn -0.5000 0.7071 0.5000
vn -0.0000 0.1149 0.9934
vn 0.9583 0.2857 -0.0000
vn 0.6776 0.2857 0.6776
vn 0.7024 0.1149 -0.7024
vn -0.0000 0.7071 -0.7071
vn -0.4816 0.7323 -0.4816
vn -0.7071 0.7071 -0.0000
vn -0.7024 0.1149 0.7024
vn -0.0000 0.2857 0.9583
vn 0.7463 0.6657 -0.0000
vn 0.5277 0.6657 0.5277
vn 0.6776 0.2857 -0.6776
vn -0.0000 0.1149 -0.9934
vn -0.5000 0.7071 -0.5000
vn -0.9934 0.1149 -0.0000
vn -0.6776 0.2857 0.6776
vn -0.0000 0.6657 0.7463
vn 0.8856 -0.4645 -0.0000
vn 0.6262 -0.4645 0.6262
vn 0.5277 0.6657 -0.5277
vn -0.0000 0.2857 -0.9583
vn -0.7024 0.1149 -0.7024
vn -0.9583 0.2857 -0.0000
vn -0.5277 0.6657 0.5277
vn -0.0000 -0.4645 0.8856
vn -0.0000 -0.4645 -0.8856
vn 0.6262 -0.4645 -0.6262
vn -0.6262 -0.4645 0.6262
vn -0.8856 -0.4645 -0.0000
vn -0.6262 -0.4645 -0.6262
vn -0.0000 0.6657 -0.7463
vn -0.6776 0.2857 -0.6776
vn -0.7463 0.6657 -0.0000
vn -0.5277 0.6657 -0.5277
vn -0.0000 -1.0000 -0.0000
vn 0.8919 -0.4523 -0.0000
vn 0.6307 -0.4523 0.6307
vn -0.0000 -0.4523 0.8919
vn 0.6307 -0.4523 -0.6307
vn 0.8919 0.4523 -0.0000
vn 0.6307 0.4523 0.6307
vn -0.6307 -0.4523 0.6307
vn -0.0000 0.4523 0.8919
vn -0.0000 -0.4523 -0.8919
vn 0.6307 0.4523 -0.6307
vn -0.8919 -0.4523 -0.0000
vn -0.6307 0.4523 0.6307
vn -0.6307 -0.4523 -0.6307
vn -0.0000 0.4523 -0.8919
vn -0.8919 0.4523 -0.0000
vn -0.6307 0.4523 -0.6307
s 1
usemtl Black_Pieces
f 1//1 2//2 3//3 4//4
f 5//5 1//1 4//4 6//6
f 7//7 8//8 2//2 1//1
f 2//2 9//9 3//3
f 4//4 3//3 10//10 11//11 12//12 13//13 14//14
f 6//6 15//15 16//16 5//5
f 17//17 7//7 1//1 5//5
f 6//6 4//4 14//14 18//18
f 19//19 20//20 21//21 22//22 8//8 7//7
f 8//8 9//9 2//2
f 3//3 9//9 10//10
f 11//11 10//10 23//23
f 14//14 13//13 24//24 25//25 26//26
f 18//18 27//27 15//15 6//6
f 28//28 29//29 16//16 15//15
f 5//5 16//16 30//30 17//17
f 31//31 19//19 7//7 17//17
f 18//18 14//14 26//26 32//32
f 33//33 34//34 35//35 36//36 20//20 19//19
f 37//37 9//9 8//8 22//22
f 23//23 10//10 9//9 38//38
f 39//39 40//40 41//41 26//26 25//25
f 32//32 42//42 27//27 18//18
f 43//43 28//28 15//15 27//27
f 44//44 45//45 29//29 28//28
f 29//29 46//46 30//30 16//16
f 17//17 30//30 47//47 31//31
f 48//48 33//33 19//19 31//31
f 32//32 26//26 41//41 49//49
f 41//41 40//40 34//34 33//33
f 34//34 50//50 35//35
f 51//51 9//9 37//37
f 38//38 9//9 52//52
f 53//53 40//40 39//39
f 49//49 54//54 42//42 32//32
f 55//55 43//43 27//27 42//42
f 56//56 44//44 28//28 43//43
f 57//57 58//58 45//45 44//44
f 45//45 59//59 46//46 29//29
f 46//46 60//60 47//47 30//30
f 31//31 47//47 61//61 48//48
f 49//49 41//41 33//33 48//48
f 40//40 53//53 50//50 34//34
f 52//52 9//9 51//51
f 48//48 61//61 54//54 49//49
f 62//62 55//55 42//42 54//54
f 63//63 56//56 43//43 55//55
f 64//64 57//57 44//44 56//56
f 65//65 66//66 58//58 57//57
f 58//58 67//67 59//59 45//45
f 59//59 68//68 60//60 46//46
f 60//60 69//69 61//61 47//47
f 69//69 62//62 54//54 61//61
f 70//70 63//63 55//55 62//62
f 71//71 64//64 56//56 63//63
f 72//72 65//65 57//57 64//64
f 73//73 66//66 65//65 74//74
f 66//66 75//75 67//67 58//58
f 67//67 76//76 68//68 59//59
f 68//68 77//77 69//69 60//60
f 77//77 70//70 62//62 69//69
f 78//78 71//71 63//63 70//70
f 79//79 72//72 64//64 71//71
f 74//74 65//65 72//72 80//80
f 81//81 73//73 74//74 82//82
f 83//83 75//75 66//66 73//73
f 75//75 84//84 76//76 67//67
f 76//76 85//85 77//77 68//68
f 85//85 78//78 70//70 77//77
f 86//86 79//79 71//71 78//78
f 80//80 72//72 79//79 87//87
f 82//82 74//74 80//80 88//88
f 89//89 81//81 82//82 90//90
f 91//91 83//83 73//73 81//81
f 92//92 84//84 75//75 83//83
f 84//84 93//93 85//85 76//76
f 93//93 86//86 78//78 85//85
f 87//87 79//79 86//86 94//94
f 88//88 80//80 87//87 95//95
f 90//90 82//82 88//88 96//96
f 97//97 89//89 90//90 98//98
f 99//99 91//91 81//81 89//89
f 100//100 92//92 83//83 91//91
f 101//101 93//93 84//84 92//92
f 94//94 86//86 93//93 101//101
f 95//95 87//87 94//94 102//102
f 96//96 88//88 95//95 103//103
f 98//98 90//90 96//96 104//104
f 105//105 97//97 98//98 106//106
f 107//107 99//99 89//89 97//97
f 108//108 100//100 91//91 99//99
f 109//109 101//101 92//92 100//100
f 102//102 94//94 101//101 109//109
f 103//103 95//95 102//102 110//110
f 104//104 96//96 103//103 111//111
f 106//106 98//98 104//104 112//112
f 113//113 105//105 106//106 114//114
f 115//115 107//107 97//97 105//105
f 116//116 108//108 99//99 107//107
f 117//117 109//109 100//100 108//108
f 110//110 102//102 109//109 117//117
f 111//111 103//103 110//110 118//118
f 112//112 104//104 111//111 119//119
f 114//114 106//106 112//112 120//120
f 121//121 122//122 113//113 114//114 120//120 123//123 124//124 125//125
f 122//122 115//115 105//105 113//113
f 126//126 116//116 107//107 115//115
f 127//127 117//117 108//108 116//116
f 118//118 110//110 117//117 127//127
f 119//119 111//111 118//118 128//128
f 120//120 112//112 119//119 123//123
f 125//125 129//129 126//126 121//121
f 121//121 126//126 115//115 122//122
f 123//123 119//119 128//128 124//124
f 124//124 128//128 129//129 125//125
f 129//129 127//127 116//116 126//126
f 128//128 118//118 127//127 129//129
f 12//12 11//11 23//23 38//38 52//52 51//51 37//37 22//22 21//21
f 21//21 20//20 36//36 24//24 13//13 12//12
f 36//36 35//35 50//50 53//53 39//39 25//25 24//24
f 130//130 131//131 132//132
f 130//130 132//132 133//133
f 130//130 134//134 131//131
f 131//131 135//135 136//136 132//132
f 130//130 133//133 137//137
f 132//132 136//136 138//138 133//133
f 130//130 139//139 134//134
f 134//134 140//140 135//135 131//131
f 135//135 141//9 136//136
f 130//130 137//137 142//141
f 133//133 138//138 143//142 137//137
f 136//136 141//9 138//138
f 130//130 144//143 139//139
f 139//139 145//144 140//140 134//134
f 140//140 141//9 135//135
f 130//130 142//141 144//143
f 137//137 143//142 146//145 142//141
f 138//138 141//9 143//142
f 144//143 147//146 145//144 139//139
f 145//144 141//9 140//140
f 142//141 146//145 147//146 144//143
f 143//142 141//9 146//145
f 147//146 141//9 145//144
f 146//145 141//9 147//146
