# Blender 3.6.9
# www.blender.org
mtllib Knight.mtl
o Knight
v -0.008153 0.012397 -0.009456
v -0.010607 0.002204 -0.010607
v -0.009400 0.006005 -0.009400
v -0.008089 0.006822 -0.008089
v -0.010035 0.010115 -0.010035
v 0.008153 0.012397 -0.009456
v -0.000000 0.012397 -0.013373
v 0.010607 0.002204 -0.010607
v 0.009400 0.006005 -0.009400
v -0.000000 0.002204 -0.015000
v -0.000000 0.006005 -0.013293
v 0.008089 0.006822 -0.008089
v -0.000000 0.006822 -0.011440
v 0.010034 0.010115 -0.010035
v -0.000000 0.010115 -0.014191
v -0.007196 0.014683 -0.008500
v 0.007196 0.014683 -0.008500
v -0.000000 0.014683 -0.012020
v -0.004509 0.020883 -0.008500
v 0.007431 0.020427 -0.008500
v 0.000179 0.021653 -0.012020
v -0.010248 0.052152 -0.005634
v -0.001083 0.040942 -0.003700
v -0.003854 0.045420 -0.005993
v -0.003996 0.024870 -0.008500
v 0.007554 0.024870 -0.004640
v 0.000357 0.024870 -0.008160
v -0.007272 0.034959 -0.007560
v 0.000041 0.034959 -0.003700
v -0.004647 0.034959 -0.005993
v 0.004282 0.048041 -0.003091
v 0.002803 0.042073 -0.002873
v 0.003516 0.046010 -0.004474
v 0.012175 0.045129 -0.002211
v 0.010706 0.041503 -0.002211
v 0.011696 0.043650 -0.003288
v 0.007567 0.041586 -0.002346
v 0.009090 0.046977 -0.002800
v 0.008094 0.044689 -0.003529
v -0.005839 0.040592 -0.005993
v -0.001874 0.038370 -0.003700
v -0.009135 0.043975 -0.007560
v -0.008576 0.041270 -0.007560
v -0.005481 0.038902 -0.005426
v -0.001299 0.037347 -0.003133
v -0.012900 0.010115 -0.003117
v -0.010399 0.006822 -0.002513
v -0.012084 0.006005 -0.002920
v -0.010853 0.012397 -0.002938
v -0.013635 0.002204 -0.003295
v -0.010736 0.014683 -0.002641
v -0.007297 0.024870 -0.002641
v -0.010936 0.052908 -0.003901
v -0.009199 0.034959 -0.002349
v -0.008318 0.020991 -0.002641
v 0.000519 0.049551 -0.000960
v 0.011952 0.045715 -0.000687
v 0.010480 0.047648 -0.000870
v -0.010472 0.044819 -0.002349
v -0.010090 0.041861 -0.002349
v -0.010736 0.014683 -0.002641
v -0.009267 0.024870 -0.002641
v -0.009530 0.051497 -0.001149
v -0.011169 0.034959 -0.002349
v -0.010288 0.020991 -0.002641
v -0.001451 0.051003 -0.000960
v -0.012442 0.044819 -0.002349
v -0.012060 0.041861 -0.002349
v -0.005490 0.051250 -0.001055
v -0.001420 0.039847 -0.003700
v -0.010934 0.050942 -0.006634
v -0.004700 0.043363 -0.005993
v -0.011618 0.051536 -0.004171
v -0.010770 0.048652 -0.001660
v -0.007694 0.046860 -0.005344
v -0.006625 0.049001 -0.003700
v -0.007560 0.050045 -0.001149
v -0.008800 0.047819 -0.001660
v -0.012069 0.012397 -0.000000
v -0.008153 0.012397 0.009456
v -0.013293 0.006005 -0.000000
v -0.015000 0.002204 -0.000000
v -0.010607 0.002204 0.010607
v -0.009400 0.006005 0.009400
v -0.011440 0.006822 -0.000000
v -0.008089 0.006822 0.008089
v -0.014191 0.010115 -0.000000
v -0.010035 0.010115 0.010035
v 0.012069 0.012397 0.000000
v 0.008153 0.012397 0.009456
v -0.000000 0.012397 0.013373
v 0.013293 0.006005 0.000000
v 0.015000 0.002204 0.000000
v 0.010607 0.002204 0.010607
v 0.009400 0.006005 0.009400
v -0.000000 0.002204 0.015000
v -0.000000 0.006005 0.013293
v 0.011440 0.006822 0.000000
v 0.008089 0.006822 0.008089
v -0.000000 0.006822 0.011440
v 0.014191 0.010115 0.000000
v 0.010034 0.010115 0.010035
v -0.000000 0.010115 0.014191
v -0.010717 0.014683 -0.000000
v -0.007196 0.014683 0.008500
v 0.010717 0.014683 0.000000
v 0.007196 0.014683 0.008500
v -0.000000 0.014683 0.012020
v -0.004509 0.020883 0.008500
v 0.011843 0.020148 0.000000
v 0.007431 0.020427 0.008500
v 0.000179 0.021653 0.012020
v -0.010248 0.052152 0.005634
v 0.000272 0.038283 0.000000
v -0.001083 0.040942 0.003700
v -0.003854 0.045420 0.005993
v -0.003996 0.024870 0.008500
v 0.011074 0.024870 0.000000
v 0.007554 0.024870 0.004640
v 0.000357 0.024870 0.008160
v -0.007272 0.034959 0.007560
v 0.002334 0.034959 0.000000
v 0.000041 0.034959 0.003700
v -0.004647 0.034959 0.005993
v -0.001176 0.050231 -0.000000
v 0.004282 0.048041 0.003091
v 0.002454 0.037977 0.000000
v 0.002803 0.042073 0.002873
v 0.003516 0.046010 0.004474
v 0.011852 0.045979 0.000000
v 0.012175 0.045129 0.002211
v 0.010304 0.040198 0.000000
v 0.010706 0.041503 0.002211
v 0.011696 0.043650 0.003288
v 0.006798 0.040153 0.000000
v 0.007567 0.041586 0.002346
v 0.009090 0.046977 0.002800
v 0.011106 0.047951 0.000000
v 0.008094 0.044689 0.003529
v -0.005839 0.040592 0.005993
v -0.001874 0.038370 0.003700
v 0.000066 0.037751 0.000000
v -0.009135 0.043975 0.007560
v 0.000747 0.036913 0.000000
v -0.008576 0.041270 0.007560
v -0.005481 0.038902 0.005426
v -0.001299 0.037347 0.003133
v -0.012900 0.010115 0.003117
v -0.010399 0.006822 0.002513
v -0.012084 0.006005 0.002920
v -0.010853 0.012397 0.002938
v -0.013635 0.002204 0.003295
v -0.010736 0.014683 0.002641
v -0.007297 0.024870 0.002641
v -0.010936 0.052908 0.003901
v -0.009199 0.034959 0.002349
v -0.008318 0.020991 0.002641
v 0.000519 0.049551 0.000960
v 0.011952 0.045715 0.000687
v 0.010480 0.047648 0.000870
v -0.010472 0.044819 0.002349
v -0.010090 0.041861 0.002349
v -0.010736 0.014683 0.002641
v -0.010717 0.014683 -0.000000
v -0.013045 0.045199 -0.000000
v -0.009951 0.051968 -0.000000
v -0.009267 0.024870 0.002641
v -0.009140 0.024870 -0.000000
v -0.009530 0.051497 0.001149
v -0.010390 0.021040 -0.000000
v -0.011169 0.034959 0.002349
v -0.012037 0.034959 -0.000000
v -0.012742 0.042127 -0.000000
v -0.010288 0.020991 0.002641
v -0.001451 0.051003 0.000960
v -0.002975 0.052120 -0.000000
v -0.012442 0.044819 0.002349
v -0.012060 0.041861 0.002349
v -0.004807 0.053103 -0.000000
v -0.005490 0.051250 0.001055
v 0.000184 0.038056 0.000000
v -0.001420 0.039847 0.003700
v -0.010934 0.050942 0.006634
v -0.004700 0.043363 0.005993
v -0.011618 0.051536 0.004171
v -0.011269 0.049084 -0.000000
v -0.010770 0.048652 0.001660
v -0.007694 0.046860 0.005344
v -0.006625 0.049001 0.003700
v -0.007560 0.050045 0.001149
v -0.008800 0.047819 0.001660
vn -0.5881 0.4894 -0.6439
vn -0.6748 0.3394 -0.6553
vn -0.0236 0.3183 -0.9477
vn -0.0000 0.4745 -0.8803
vn -0.8115 0.4938 -0.3125
vn -0.6649 0.5092 -0.5465
vn -0.6701 0.6885 -0.2775
vn -0.8987 0.2320 -0.3722
vn -0.6773 0.2874 -0.6773
vn -0.5262 0.6680 -0.5262
vn -0.7298 -0.0321 -0.6829
vn -0.0000 -0.1010 -0.9949
vn -0.9236 0.0261 -0.3826
vn -0.6254 -0.4667 -0.6254
vn -0.0000 0.6680 -0.7442
vn -0.0000 -0.4667 -0.8844
vn -0.0000 0.2874 -0.9578
vn -0.7683 -0.5554 -0.3182
vn 0.5792 0.5264 -0.6224
vn 0.6962 0.2465 -0.6742
vn 0.7913 0.6114 -0.0000
vn 0.9748 0.2232 -0.0000
vn 0.7442 0.6680 -0.0000
vn 0.5262 0.6680 -0.5262
vn 0.6773 0.2874 -0.6773
vn 0.9578 0.2874 -0.0000
vn 0.7298 -0.0321 -0.6829
vn 0.9997 0.0230 -0.0000
vn 0.6254 -0.4667 -0.6254
vn 0.8844 -0.4667 -0.0000
vn -0.0013 0.3360 -0.9419
vn 0.6694 0.2243 -0.7082
vn -0.6489 0.2585 -0.7156
vn 0.9961 0.0878 -0.0000
vn -0.7161 0.1367 -0.6845
vn -0.4778 0.2112 -0.8527
vn -0.6263 0.1288 -0.7688
vn -0.4720 0.3484 -0.8099
vn 0.9521 -0.3057 -0.0000
vn 0.6610 -0.2245 -0.7160
vn 0.4229 -0.3586 -0.8322
vn 0.7417 -0.6707 -0.0000
vn -0.5647 -0.0041 -0.8253
vn -0.4847 0.1498 -0.8618
vn -0.7136 0.1247 -0.6894
vn -0.6206 0.0301 -0.7835
vn 0.3446 0.0489 -0.9375
vn 0.1579 0.2398 -0.9579
vn -0.3010 0.3155 -0.8999
vn 0.3705 0.6915 -0.6201
vn 0.2156 0.4885 -0.8455
vn 0.6484 0.4692 -0.5995
vn -0.4793 0.2347 -0.8457
vn 0.8911 0.4538 -0.0000
vn -0.5467 -0.0966 -0.8317
vn -0.6231 -0.1026 -0.7754
vn 0.4278 0.2759 -0.8607
vn 0.5798 0.4643 -0.6695
vn -0.3865 0.0084 -0.9222
vn 0.7799 0.6259 -0.0000
vn -0.5773 0.8165 -0.0000
vn -0.6852 0.7283 -0.0000
vn -0.5618 0.5975 -0.5722
vn -0.5966 -0.0991 -0.7964
vn -0.5960 -0.0676 -0.8001
vn 0.8336 0.5524 -0.0000
vn 0.6807 0.3691 -0.6328
vn 0.6017 -0.1574 -0.7831
vn 0.9904 0.1383 -0.0000
vn 0.5002 0.0318 -0.8653
vn -0.3554 -0.0989 -0.9295
vn -0.4728 0.1796 -0.8627
vn 0.4431 -0.0403 -0.8956
vn 0.1701 0.1130 -0.9789
vn 0.1756 -0.5211 -0.8352
vn 0.1799 0.7296 -0.6598
vn 0.2565 -0.9665 -0.0000
vn 0.5936 0.8047 -0.0000
vn 0.1792 0.8901 -0.4191
vn 0.4921 0.6459 -0.5837
vn 0.3317 0.9434 -0.0000
vn 0.1386 -0.9903 -0.0000
vn 0.0579 -0.6156 -0.7860
vn 0.5533 -0.6544 -0.5154
vn 0.4724 -0.8814 -0.0000
vn 0.4624 0.7734 -0.4336
vn 0.6542 0.7563 -0.0000
vn 0.9867 0.1625 -0.0000
vn 0.9709 0.1475 -0.1887
vn 0.1429 -0.0204 -0.9895
vn 0.6662 -0.1926 -0.7205
vn 0.3127 0.6489 -0.6936
vn 0.8770 0.1728 -0.4483
vn 0.0945 0.6223 -0.7771
vn -0.3173 0.4715 -0.8228
vn 0.0249 0.3616 -0.9320
vn -0.4412 -0.0398 -0.8965
vn -0.9825 0.0530 0.1785
vn -0.2752 0.9243 0.2644
vn 0.1548 0.7903 -0.5929
vn -0.8844 -0.4667 -0.0000
vn -0.7442 0.6680 -0.0000
vn -0.9578 0.2874 -0.0000
vn -0.9997 0.0230 -0.0000
vn -0.8448 0.5351 -0.0000
vn -0.9848 0.1737 -0.0000
vn -0.8997 0.4365 -0.0000
vn -0.6350 0.7725 -0.0000
vn -0.9996 0.0288 -0.0000
vn -0.9854 -0.1701 -0.0000
vn -0.9936 -0.1128 -0.0000
vn -0.9829 0.1839 -0.0000
vn 0.0828 0.9966 -0.0000
vn -0.5881 0.4894 0.6439
vn -0.0000 0.4745 0.8803
vn -0.0236 0.3183 0.9477
vn -0.6748 0.3394 0.6553
vn -0.8115 0.4938 0.3125
vn -0.6649 0.5092 0.5465
vn -0.6701 0.6885 0.2775
vn -0.5262 0.6680 0.5262
vn -0.6773 0.2874 0.6773
vn -0.8987 0.2320 0.3722
vn -0.7298 -0.0321 0.6829
vn -0.0000 -0.1010 0.9949
vn -0.9236 0.0261 0.3826
vn -0.6254 -0.4667 0.6254
vn -0.0000 -0.4667 0.8844
vn -0.0000 0.6680 0.7442
vn -0.0000 0.2874 0.9578
vn -0.7683 -0.5554 0.3182
vn 0.5792 0.5264 0.6224
vn 0.6962 0.2465 0.6742
vn 0.6773 0.2874 0.6773
vn 0.5262 0.6680 0.5262
vn 0.7298 -0.0321 0.6829
vn 0.6254 -0.4667 0.6254
vn 0.6694 0.2243 0.7082
vn -0.0013 0.3360 0.9419
vn -0.6489 0.2585 0.7156
vn -0.7161 0.1367 0.6845
vn -0.4720 0.3484 0.8099
vn -0.6263 0.1288 0.7688
vn -0.4778 0.2112 0.8527
vn 0.4229 -0.3586 0.8322
vn 0.6610 -0.2245 0.7160
vn -0.5647 -0.0041 0.8253
vn -0.6206 0.0301 0.7835
vn -0.7136 0.1247 0.6894
vn -0.4847 0.1498 0.8618
vn 0.1579 0.2398 0.9579
vn 0.3446 0.0489 0.9375
vn 0.3705 0.6915 0.6201
vn -0.3010 0.3155 0.8999
vn 0.6484 0.4692 0.5995
vn 0.2156 0.4885 0.8455
vn -0.4793 0.2347 0.8457
vn -0.5467 -0.0966 0.8317
vn -0.6231 -0.1026 0.7754
vn 0.5798 0.4643 0.6695
vn 0.4278 0.2759 0.8607
vn -0.3865 0.0084 0.9222
vn -0.5618 0.5975 0.5722
vn -0.5960 -0.0676 0.8001
vn -0.5966 -0.0991 0.7964
vn 0.6017 -0.1574 0.7831
vn 0.6807 0.3691 0.6328
vn 0.5002 0.0318 0.8653
vn 0.4431 -0.0403 0.8956
vn -0.4728 0.1796 0.8627
vn -0.3554 -0.0989 0.9295
vn 0.1756 -0.5211 0.8352
vn 0.1701 0.1130 0.9789
vn 0.1799 0.7296 0.6598
vn 0.4921 0.6459 0.5837
vn 0.1792 0.8901 0.4191
vn 0.5533 -0.6544 0.5154
vn 0.0579 -0.6156 0.7860
vn 0.4624 0.7734 0.4336
vn 0.9709 0.1475 0.1887
vn 0.6662 -0.1926 0.7205
vn 0.1429 -0.0204 0.9895
vn 0.8770 0.1728 0.4483
vn 0.3127 0.6489 0.6936
vn 0.0249 0.3616 0.9320
vn -0.3173 0.4715 0.8228
vn 0.0945 0.6223 0.7771
vn -0.4412 -0.0398 0.8965
vn 0.1548 0.7903 0.5929
vn -0.2752 0.9243 -0.2644
vn -0.9825 0.0530 -0.1785
s 1
usemtl White_Pieces
f 1//1 16//2 18//3 7//4
f 49//5 51//6 16//2 1//1
f 48//7 47//8 4//9 3//10
f 5//11 1//1 7//4 15//12
f 46//13 49//5 1//1 5//11
f 2//14 3//10 11//15 10//16
f 4//9 5//11 15//12 13//17
f 47//8 46//13 5//11 4//9
f 50//18 48//7 3//10 2//14
f 3//10 4//9 13//17 11//15
f 6//19 7//4 18//3 17//20
f 89//21 6//19 17//20 106//22
f 92//23 9//24 12//25 98//26
f 14//27 15//12 7//4 6//19
f 101//28 14//27 6//19 89//21
f 8//29 10//16 11//15 9//24
f 12//25 13//17 15//12 14//27
f 98//26 12//25 14//27 101//28
f 93//30 8//29 9//24 92//23
f 9//24 11//15 13//17 12//25
f 17//20 18//3 21//31 20//32
f 18//3 16//2 19//33 21//31
f 106//22 17//20 20//32 110//34
f 78//35 59//36 67//37 74//38
f 181//39 70//40 23//41 114//42
f 52//43 55//44 65//45 62//46
f 70//40 72//47 24//48 23//41
f 72//47 75//49 76//50 24//48
f 20//32 21//31 27//51 26//52
f 21//31 19//33 25//53 27//51
f 110//34 20//32 26//52 118//54
f 54//55 52//43 62//46 64//56
f 26//52 27//51 30//57 29//58
f 27//51 25//53 28//59 30//57
f 118//54 26//52 29//58 122//60
f 51//6 104//61 164//62 61//63
f 59//36 60//64 68//65 67//37
f 144//66 45//67 41//68 142//69
f 44//70 43//71 42//72 40//73
f 45//67 44//70 40//73 41//68
f 23//41 24//48 33//74 32//75
f 24//48 76//50 31//76 33//74
f 114//42 23//41 32//75 127//77
f 125//78 56//79 66//80 176//81
f 135//82 37//83 35//84 132//85
f 58//86 138//87 130//88 57//89
f 37//83 39//90 36//91 35//84
f 39//90 38//92 34//93 36//91
f 33//74 31//76 38//92 39//90
f 32//75 33//74 39//90 37//83
f 56//79 125//78 138//87 58//86
f 127//77 32//75 37//83 135//82
f 29//58 30//57 44//70 45//67
f 30//57 28//59 43//71 44//70
f 122//60 29//58 45//67 144//66
f 56//79 77//94 63//95 69//96 66//80
f 36//91 34//93 57//89 130//88 132//85 35//84
f 28//59 54//55 60//64 43//71
f 31//76 56//79 58//86 38//92
f 38//92 58//86 57//89 34//93
f 76//50 77//94 56//79 31//76
f 43//71 60//64 59//36 42//72
f 25//53 52//43 54//55 28//59
f 19//33 55//44 52//43 25//53
f 71//97 73//98 53//99 22//100
f 16//2 51//6 55//44 19//33
f 82//101 81//102 48//7 50//18
f 85//103 87//104 46//13 47//8
f 87//104 79//105 49//5 46//13
f 81//102 85//103 47//8 48//7
f 79//105 104//61 51//6 49//5
f 61//63 164//62 170//106 65//45
f 74//38 186//107 166//108 63//95
f 65//45 170//106 168//109 62//46
f 62//46 168//109 172//110 64//56
f 68//65 173//111 165//112 67//37
f 69//96 179//113 176//81 66//80
f 64//56 172//110 173//111 68//65
f 60//64 54//55 64//56 68//65
f 55//44 51//6 61//63 65//45
f 10//16 8//29 93//30 82//101 50//18 2//14
f 63//95 166//108 179//113 69//96
f 67//37 165//112 186//107 74//38
f 42//72 59//36 78//35 75//49
f 40//73 42//72 75//49 72//47
f 41//68 40//73 72//47 70//40
f 142//69 41//68 70//40 181//39
f 77//94 78//35 74//38 63//95
f 71//97 22//100 76//50 75//49
f 22//100 53//99 77//94 76//50
f 53//99 73//98 78//35 77//94
f 73//98 71//97 75//49 78//35
f 80//114 91//115 108//116 105//117
f 151//118 80//114 105//117 153//119
f 150//120 84//121 86//122 149//123
f 88//124 103//125 91//115 80//114
f 148//126 88//124 80//114 151//118
f 83//127 96//128 97//129 84//121
f 86//122 100//130 103//125 88//124
f 149//123 86//122 88//124 148//126
f 152//131 83//127 84//121 150//120
f 84//121 97//129 100//130 86//122
f 90//132 107//133 108//116 91//115
f 89//21 106//22 107//133 90//132
f 92//23 98//26 99//134 95//135
f 102//136 90//132 91//115 103//125
f 101//28 89//21 90//132 102//136
f 94//137 95//135 97//129 96//128
f 99//134 102//136 103//125 100//130
f 98//26 101//28 102//136 99//134
f 93//30 92//23 95//135 94//137
f 95//135 99//134 100//130 97//129
f 107//133 111//138 112//139 108//116
f 108//116 112//139 109//140 105//117
f 106//22 110//34 111//138 107//133
f 191//141 187//142 177//143 161//144
f 181//39 114//42 115//145 182//146
f 154//147 167//148 174//149 157//150
f 182//146 115//145 116//151 184//152
f 184//152 116//151 189//153 188//154
f 111//138 119//155 120//156 112//139
f 112//139 120//156 117//157 109//140
f 110//34 118//54 119//155 111//138
f 156//158 171//159 167//148 154//147
f 119//155 123//160 124//161 120//156
f 120//156 124//161 121//162 117//157
f 118//54 122//60 123//160 119//155
f 153//119 163//163 164//62 104//61
f 161//144 177//143 178//164 162//165
f 144//66 142//69 141//166 147//167
f 146//168 140//169 143//170 145//171
f 147//167 141//166 140//169 146//168
f 115//145 128//172 129//173 116//151
f 116//151 129//173 126//174 189//153
f 114//42 127//77 128//172 115//145
f 125//78 176//81 175//175 158//176
f 135//82 132//85 133//177 136//178
f 160//179 159//180 130//88 138//87
f 136//178 133//177 134//181 139//182
f 139//182 134//181 131//183 137//184
f 129//173 139//182 137//184 126//174
f 128//172 136//178 139//182 129//173
f 158//176 160//179 138//87 125//78
f 127//77 135//82 136//178 128//172
f 123//160 147//167 146//168 124//161
f 124//161 146//168 145//171 121//162
f 122//60 144//66 147//167 123//160
f 158//176 175//175 180//185 169//186 190//187
f 134//181 133//177 132//85 130//88 159//180 131//183
f 121//162 145//171 162//165 156//158
f 126//174 137//184 160//179 158//176
f 137//184 131//183 159//180 160//179
f 189//153 126//174 158//176 190//187
f 145//171 143//170 161//144 162//165
f 117//157 121//162 156//158 154//147
f 109//140 117//157 154//147 157//150
f 183//188 113//189 155//190 185//191
f 105//117 109//140 157//150 153//119
f 82//101 152//131 150//120 81//102
f 85//103 149//123 148//126 87//104
f 87//104 148//126 151//118 79//105
f 81//102 150//120 149//123 85//103
f 79//105 151//118 153//119 104//61
f 163//163 174//149 170//106 164//62
f 187//142 169//186 166//108 186//107
f 174//149 167//148 168//109 170//106
f 167//148 171//159 172//110 168//109
f 178//164 177//143 165//112 173//111
f 180//185 175//175 176//81 179//113
f 171//159 178//164 173//111 172//110
f 162//165 178//164 171//159 156//158
f 157//150 174//149 163//163 153//119
f 96//128 83//127 152//131 82//101 93//30 94//137
f 169//186 180//185 179//113 166//108
f 177//143 187//142 186//107 165//112
f 143//170 188//154 191//141 161//144
f 140//169 184//152 188//154 143//170
f 141//166 182//146 184//152 140//169
f 142//69 181//39 182//146 141//166
f 190//187 169//186 187//142 191//141
f 183//188 188//154 189//153 113//189
f 113//189 189//153 190//187 155//190
f 155//190 190//187 191//141 185//191
f 185//191 191//141 188//154 183//188
