# Blender 3.6.9
# www.blender.org
mtllib Black Queen.mtl
o Queen.001
v 21.108351 5.705324 -2.920423
v 21.175758 5.654768 -2.853013
v 21.418278 5.654768 -3.438504
v 21.322947 5.705324 -3.438505
v 21.322947 6.190324 -3.438505
v 21.108351 6.190324 -2.920423
v 20.590269 5.705324 -2.705827
v 20.590269 5.654768 -2.610495
v 21.212061 5.532712 -2.816710
v 21.469618 5.532712 -3.438504
v 21.175760 5.654768 -4.023995
v 21.108351 5.705324 -3.956586
v 20.590269 6.190324 -2.705827
v 21.108351 6.190324 -3.956586
v 20.072187 5.705324 -2.920423
v 20.004778 5.654768 -2.853014
v 20.590269 5.532712 -2.559155
v 21.500334 5.321886 -2.528437
v 21.877296 5.321886 -3.438503
v 21.212063 5.532712 -4.060298
v 20.590269 5.654768 -4.266514
v 20.590269 5.705324 -4.171183
v 20.072187 6.190324 -2.920423
v 20.590269 6.190324 -4.171183
v 19.857592 5.705324 -3.438505
v 19.762260 5.654768 -3.438505
v 19.968475 5.532712 -2.816711
v 20.590269 5.321886 -2.151477
v 21.072870 5.124664 -2.955903
v 21.272770 5.124664 -3.438504
v 21.500336 5.321886 -4.348570
v 20.590269 5.532712 -4.317854
v 20.004778 5.654768 -4.023996
v 20.072187 5.705324 -3.956587
v 19.857592 6.190324 -3.438505
v 20.072187 6.190324 -3.956587
v 21.427069 6.748209 -3.438505
v 21.181976 6.748209 -2.846798
v 19.710920 5.532712 -3.438505
v 19.680202 5.321886 -2.528439
v 20.590269 5.124664 -2.756003
v 21.296858 1.740510 -2.731913
v 21.589539 1.740510 -3.438504
v 21.072870 5.124664 -3.921105
v 20.590269 5.321886 -4.725533
v 19.968475 5.532712 -4.060298
v 20.590269 6.748209 -2.601705
v 21.181976 6.748209 -4.030211
v 20.964455 7.079407 -3.438505
v 20.854858 7.079407 -3.173916
v 19.303242 5.321886 -3.438505
v 20.107668 5.124664 -2.955903
v 20.590269 1.740510 -2.439235
v 21.823505 1.658809 -3.438503
v 21.462297 1.658809 -2.566474
v 21.296860 1.740510 -4.145094
v 20.590269 5.124664 -4.121006
v 19.680202 5.321886 -4.348571
v 19.998562 6.748209 -2.846798
v 20.590269 7.079407 -3.064320
v 20.590269 6.748209 -4.275305
v 20.854858 7.079407 -3.703094
v 20.743946 7.166852 -3.284828
v 20.807602 7.166852 -3.438505
v 19.907768 5.124664 -3.438505
v 19.883678 1.740510 -2.731915
v 20.590269 1.658809 -2.205269
v 21.962269 1.422860 -3.438503
v 21.560419 1.422860 -2.468353
v 21.462299 1.658809 -4.310534
v 20.590269 1.740510 -4.437774
v 20.107668 5.124664 -3.921106
v 19.753469 6.748209 -3.438505
v 20.325680 7.079407 -3.173916
v 20.590269 7.166852 -3.221173
v 19.998562 6.748209 -4.030212
v 20.590269 7.079407 -3.812690
v 20.743946 7.166852 -3.592182
v 19.591000 1.740510 -3.438505
v 19.718239 1.658809 -2.566476
v 20.590269 1.422860 -2.066505
v 22.482393 1.061347 -3.438503
v 21.928202 1.061347 -2.100568
v 21.560421 1.422860 -4.408655
v 20.590269 1.658809 -4.671741
v 19.883678 1.740510 -4.145095
v 20.216084 7.079407 -3.438505
v 20.436592 7.166852 -3.284828
v 20.325680 7.079407 -3.703094
v 20.590269 7.166852 -3.655837
v 19.357033 1.658809 -3.438505
v 19.620119 1.422860 -2.468354
v 20.590269 1.061347 -1.546380
v 22.115602 0.619601 -3.438503
v 21.668842 0.619601 -2.359929
v 21.928205 1.061347 -4.776438
v 20.590269 1.422860 -4.810505
v 19.718239 1.658809 -4.310534
v 20.372936 7.166852 -3.438505
v 20.436592 7.166852 -3.592182
v 19.218269 1.422860 -3.438505
v 19.252335 1.061347 -2.100571
v 20.590269 0.619601 -1.913170
v 22.362719 0.509975 -3.438503
v 21.843578 0.509975 -2.185191
v 21.668844 0.619601 -4.517078
v 20.590269 1.061347 -5.330630
v 19.620119 1.422860 -4.408655
v 18.698145 1.061347 -3.438505
v 19.511694 0.619601 -2.359931
v 20.590269 0.509975 -1.666055
v 22.590269 -0.000000 -3.438503
v 22.004480 -0.000000 -2.024289
v 21.843582 0.509975 -4.691815
v 20.590269 0.619601 -4.963839
v 19.252335 1.061347 -4.776440
v 19.064934 0.619601 -3.438505
v 19.336958 0.509975 -2.185194
v 20.590269 -0.000000 -1.438505
v 20.590271 -0.000000 -5.438505
v 22.004484 -0.000000 -4.852717
v 19.176056 -0.000000 -2.024292
v 18.590269 -0.000000 -3.438505
v 19.176056 -0.000000 -4.852719
v 20.590269 0.509975 -5.210955
v 19.511696 0.619601 -4.517079
v 18.817820 0.509975 -3.438505
v 19.336958 0.509975 -4.691817
v 20.887856 7.240544 -3.438505
v 20.800695 7.240544 -3.228079
v 20.800695 7.240544 -3.648931
v 20.926413 7.448916 -3.438505
v 20.827959 7.448916 -3.200815
v 20.590269 7.240544 -3.140918
v 20.590269 7.240544 -3.736092
v 20.827959 7.448916 -3.676194
v 20.827959 7.650663 -3.438505
v 20.758341 7.650663 -3.270433
v 20.590269 7.448916 -3.102361
v 20.379843 7.240544 -3.228079
v 20.379843 7.240544 -3.648931
v 20.590269 7.448916 -3.774648
v 20.758341 7.650663 -3.606577
v 20.590269 7.749117 -3.438505
v 20.590269 7.650663 -3.200815
v 20.352579 7.448916 -3.200815
v 20.292683 7.240544 -3.438505
v 20.352579 7.448916 -3.676194
v 20.590269 7.650663 -3.676194
v 20.422197 7.650663 -3.270433
v 20.254126 7.448916 -3.438505
v 20.422197 7.650663 -3.606577
v 20.352579 7.650663 -3.438505
v 21.215649 6.190324 -3.697546
v 21.215649 6.190324 -3.179464
v 21.520771 6.598949 -3.438505
v 21.553354 7.007575 -3.039582
v 20.331228 6.190324 -2.813125
v 20.849310 6.190324 -2.813125
v 21.248232 6.598949 -2.780541
v 20.989191 7.007575 -2.475420
v 20.590269 6.598949 -2.508004
v 20.849310 6.190324 -4.063885
v 21.248232 6.598949 -4.096468
v 21.553354 7.007575 -3.837428
v 19.964890 6.190324 -3.179464
v 20.191345 7.007575 -2.475420
v 19.932304 6.598949 -2.780541
v 20.331228 6.190324 -4.063885
v 20.590269 6.598949 -4.369006
v 20.989191 7.007575 -4.401590
v 19.964890 6.190324 -3.697546
v 19.627184 7.007575 -3.039582
v 19.659767 6.598949 -3.438505
v 19.932306 6.598949 -4.096468
v 20.191347 7.007575 -4.401590
v 19.627184 7.007575 -3.837428
v 19.796036 6.598949 -3.767487
v 20.261288 6.598949 -4.232737
v 19.796036 6.598949 -3.109523
v 20.919250 6.598949 -4.232737
v 20.261288 6.598949 -2.644273
v 21.384502 6.598949 -3.767487
v 20.919250 6.598949 -2.644272
v 21.384501 6.598949 -3.109523
v 21.088823 6.650201 -2.939951
v 21.295330 6.650201 -3.438505
v 20.091715 6.650201 -2.939951
v 20.590269 6.650201 -2.733443
v 21.088823 6.650201 -3.937058
v 20.590269 6.650201 -4.143566
v 19.885208 6.650201 -3.438505
v 20.091715 6.650201 -3.937059
vn 0.5765 0.5791 0.5765
vn 0.5459 0.6356 0.5459
vn 0.7720 0.6356 -0.0000
vn 0.8152 0.5791 -0.0000
vn 0.9717 -0.2363 -0.0000
vn 0.9035 -0.2086 0.3743
vn 0.6871 -0.2363 0.6871
vn -0.0000 0.5791 0.8152
vn -0.0000 0.6356 0.7720
vn 0.4886 0.7228 0.4886
vn 0.6910 0.7228 -0.0000
vn 0.5459 0.6356 -0.5459
vn 0.5765 0.5791 -0.5765
vn 0.3743 -0.2086 0.9035
vn -0.0000 -0.2363 0.9717
vn 0.6871 -0.2363 -0.6871
vn 0.9035 -0.2087 -0.3743
vn -0.5765 0.5791 0.5765
vn -0.5459 0.6356 0.5459
vn -0.0000 0.7228 0.6910
vn 0.7055 -0.0665 0.7055
vn 0.9978 -0.0665 -0.0000
vn 0.4886 0.7228 -0.4886
vn -0.0000 0.6356 -0.7720
vn -0.0000 0.5791 -0.8152
vn -0.3743 -0.2086 0.9035
vn -0.6871 -0.2363 0.6871
vn -0.0000 -0.2363 -0.9717
vn 0.3743 -0.2086 -0.9035
vn -0.8152 0.5791 -0.0000
vn -0.7720 0.6356 -0.0000
vn -0.4886 0.7228 0.4886
vn -0.0000 -0.0665 0.9978
vn 0.5489 -0.6305 0.5489
vn 0.7762 -0.6305 -0.0000
vn 0.7055 -0.0665 -0.7055
vn -0.0000 0.7228 -0.6910
vn -0.5459 0.6356 -0.5459
vn -0.5765 0.5791 -0.5765
vn -0.9035 -0.2086 0.3743
vn -0.9717 -0.2363 -0.0000
vn -0.6871 -0.2363 -0.6871
vn -0.3743 -0.2086 -0.9035
vn -0.8434 -0.4083 0.3493
vn -0.9823 -0.1875 -0.0000
vn -0.6910 0.7228 -0.0000
vn -0.7055 -0.0665 0.7055
vn -0.0000 -0.6305 0.7762
vn 0.5131 0.6881 0.5131
vn 0.7256 0.6881 -0.0000
vn 0.5489 -0.6305 -0.5489
vn -0.0000 -0.0665 -0.9978
vn -0.4886 0.7228 -0.4886
vn -0.9035 -0.2087 -0.3743
vn -0.7568 -0.3895 -0.5249
vn -0.3493 -0.4083 -0.8434
vn -0.0383 0.9993 -0.0000
vn -0.0271 0.9993 -0.0271
vn 0.0232 0.9995 0.0232
vn 0.0329 0.9995 -0.0000
vn -0.9978 -0.0665 -0.0000
vn -0.5489 -0.6305 0.5489
vn -0.0000 0.6881 0.7256
vn 0.6810 0.7323 -0.0000
vn 0.4816 0.7323 0.4816
vn 0.5131 0.6881 -0.5131
vn -0.0000 -0.6305 -0.7762
vn -0.7055 -0.0665 -0.7055
vn -0.0000 -0.1875 -0.9823
vn -0.0000 0.9993 -0.0383
vn -0.0000 0.9995 0.0329
vn -0.0271 0.9993 0.0271
vn 0.0232 0.9995 -0.0232
vn 0.6993 0.1480 0.6993
vn 0.4807 0.7333 0.4807
vn 0.6799 0.7333 -0.0000
vn 0.9890 0.1480 -0.0000
vn -0.7762 -0.6305 -0.0000
vn -0.5131 0.6881 0.5131
vn -0.0000 0.7323 0.6810
vn 0.7071 0.7071 -0.0000
vn 0.5000 0.7071 0.5000
vn 0.4816 0.7323 -0.4816
vn -0.0000 0.6881 -0.7256
vn -0.5489 -0.6305 -0.5489
vn -0.8434 -0.4083 -0.3493
vn 0.0271 0.9993 -0.0271
vn -0.0232 0.9995 0.0232
vn -0.0000 0.1480 0.9890
vn -0.0000 0.7333 0.6799
vn -0.0000 0.9993 0.0383
vn -0.0000 0.9995 -0.0329
vn 0.4807 0.7333 -0.4807
vn 0.6993 0.1480 -0.6993
vn -0.7256 0.6881 -0.0000
vn -0.4816 0.7323 0.4816
vn -0.0000 0.7071 0.7071
vn 0.9934 0.1149 -0.0000
vn 0.7024 0.1149 0.7024
vn 0.5000 0.7071 -0.5000
vn -0.0000 0.7323 -0.6810
vn -0.5131 0.6881 -0.5131
vn 0.0383 0.9993 -0.0000
vn 0.1131 0.9934 0.0171
vn -0.6993 0.1480 0.6993
vn -0.4807 0.7333 0.4807
vn 0.0271 0.9993 0.0271
vn 0.0914 0.7034 0.7049
vn -0.0000 0.7333 -0.6799
vn -0.0000 0.1480 -0.9890
vn -0.6810 0.7323 -0.0000
vn -0.5000 0.7071 0.5000
vn -0.0000 0.1149 0.9934
vn 0.9583 0.2857 -0.0000
vn 0.6776 0.2857 0.6776
vn 0.7024 0.1149 -0.7024
vn -0.0000 0.7071 -0.7071
vn -0.4816 0.7323 -0.4816
vn -0.9890 0.1480 -0.0000
vn -0.6799 0.7333 -0.0000
vn -0.4807 0.7333 -0.4807
vn -0.6993 0.1480 -0.6993
vn -0.7071 0.7071 -0.0000
vn -0.7024 0.1149 0.7024
vn -0.0000 0.2857 0.9583
vn 0.7463 0.6657 -0.0000
vn 0.5277 0.6657 0.5277
vn 0.6776 0.2857 -0.6776
vn -0.0000 0.1149 -0.9934
vn -0.5000 0.7071 -0.5000
vn -0.9934 0.1149 -0.0000
vn -0.6776 0.2857 0.6776
vn -0.0000 0.6657 0.7463
vn 0.8856 -0.4645 -0.0000
vn 0.6262 -0.4645 0.6262
vn 0.5277 0.6657 -0.5277
vn -0.0000 0.2857 -0.9583
vn -0.7024 0.1149 -0.7024
vn -0.9583 0.2857 -0.0000
vn -0.5277 0.6657 0.5277
vn -0.0000 -0.4645 0.8856
vn -0.0000 -0.4645 -0.8856
vn 0.6262 -0.4645 -0.6262
vn -0.6262 -0.4645 0.6262
vn -0.8856 -0.4645 -0.0000
vn -0.6262 -0.4645 -0.6262
vn -0.0000 0.6657 -0.7463
vn -0.6776 0.2857 -0.6776
vn -0.7463 0.6657 -0.0000
vn -0.5277 0.6657 -0.5277
vn 0.8913 -0.4535 -0.0000
vn 0.6302 -0.4535 0.6302
vn 0.6302 -0.4535 -0.6302
vn 0.9921 0.1257 -0.0000
vn 0.7015 0.1257 0.7015
vn -0.0000 -0.4535 0.8913
vn -0.0000 -0.4535 -0.8913
vn 0.7015 0.1257 -0.7015
vn 0.7270 0.6866 -0.0000
vn 0.5141 0.6866 0.5141
vn -0.0000 0.1257 0.9921
vn -0.6302 -0.4535 0.6302
vn -0.6302 -0.4535 -0.6302
vn -0.0000 0.1257 -0.9921
vn 0.5141 0.6866 -0.5141
vn -0.0000 1.0000 -0.0000
vn -0.0000 0.6866 0.7270
vn -0.7015 0.1257 0.7015
vn -0.8913 -0.4535 -0.0000
vn -0.7015 0.1257 -0.7015
vn -0.0000 0.6866 -0.7270
vn -0.5141 0.6866 0.5141
vn -0.9921 0.1257 -0.0000
vn -0.5141 0.6866 -0.5141
vn -0.7270 0.6866 -0.0000
vn -0.6946 -0.1875 0.6946
vn 0.3493 -0.4083 -0.8434
vn 0.6946 -0.1875 -0.6946
vn -0.3493 -0.4083 0.8434
vn -0.0000 -0.1875 0.9823
vn 0.8434 -0.4083 -0.3493
vn 0.9823 -0.1875 -0.0000
vn 0.3493 -0.4083 0.8434
vn 0.6946 -0.1875 0.6946
vn 0.8434 -0.4083 0.3493
vn 0.5005 0.8127 0.2984
vn -0.5362 0.8144 0.2221
vn -0.2221 0.8144 0.5362
vn 0.2221 0.8144 0.5362
vn 0.5362 0.8144 0.2221
vn 0.5362 0.8144 -0.2221
vn 0.2221 0.8144 -0.5362
vn -0.2221 0.8144 -0.5362
s 1
usemtl Black_Pieces
f 1//1 2//2 3//3 4//4
f 1//1 4//4 5//5 155//6 6//7
f 7//8 8//9 2//2 1//1
f 9//10 10//11 3//3 2//2
f 4//4 3//3 11//12 12//13
f 7//8 1//1 6//7 159//14 13//15
f 4//4 12//13 14//16 154//17 5//5
f 15//18 16//19 8//9 7//8
f 17//20 9//10 2//2 8//9
f 18//21 19//22 10//11 9//10
f 10//11 20//23 11//12 3//3
f 12//13 11//12 21//24 22//25
f 15//18 7//8 13//15 158//26 23//27
f 12//13 22//25 24//28 163//29 14//16
f 25//30 26//31 16//19 15//18
f 27//32 17//20 8//9 16//19
f 28//33 18//21 9//10 17//20
f 29//34 30//35 19//22 18//21
f 19//22 31//36 20//23 10//11
f 20//23 32//37 21//24 11//12
f 22//25 21//24 33//38 34//39
f 25//30 15//18 23//27 166//40 35//41
f 22//25 34//39 36//42 169//43 24//28
f 35//41 166//40 180//44 174//45
f 34//39 33//38 26//31 25//30
f 39//46 27//32 16//19 26//31
f 40//47 28//33 17//20 27//32
f 41//48 29//34 18//21 28//33
f 42//49 43//50 30//35 29//34
f 30//35 44//51 31//36 19//22
f 31//36 45//52 32//37 20//23
f 32//37 46//53 33//38 21//24
f 34//39 25//30 35//41 172//54 36//42
f 169//43 36//42 175//55 179//56
f 187//57 186//58 38//59 37//60
f 46//53 39//46 26//31 33//38
f 51//61 40//47 27//32 39//46
f 52//62 41//48 28//33 40//47
f 53//63 42//49 29//34 41//48
f 54//64 43//50 42//49 55//65
f 43//50 56//66 44//51 30//35
f 44//51 57//67 45//52 31//36
f 45//52 58//68 46//53 32//37
f 24//28 169//43 179//56 170//69
f 186//58 189//70 47//71 38//59
f 190//72 187//57 37//60 48//73
f 63//74 50//75 49//76 64//77
f 58//68 51//61 39//46 46//53
f 65//78 52//62 40//47 51//61
f 66//79 53//63 41//48 52//62
f 55//65 42//49 53//63 67//80
f 68//81 54//64 55//65 69//82
f 70//83 56//66 43//50 54//64
f 56//66 71//84 57//67 44//51
f 57//67 72//85 58//68 45//52
f 172//54 35//41 174//45 178//86
f 189//70 188//87 59//88 47//71
f 75//89 60//90 50//75 63//74
f 36//42 172//54 178//86 175//55
f 191//91 190//72 48//73 61//92
f 64//77 49//76 62//93 78//94
f 72//85 65//78 51//61 58//68
f 79//95 66//79 52//62 65//78
f 67//80 53//63 66//79 80//96
f 69//82 55//65 67//80 81//97
f 82//98 68//81 69//82 83//99
f 84//100 70//83 54//64 68//81
f 85//101 71//84 56//66 70//83
f 71//84 86//102 72//85 57//67
f 188//87 192//103 73//104 59//88
f 88//105 74//106 60//90 75//89
f 193//107 191//91 61//92 76//108
f 78//94 62//93 77//109 90//110
f 86//102 79//95 65//78 72//85
f 80//96 66//79 79//95 91//111
f 81//97 67//80 80//96 92//112
f 83//99 69//82 81//97 93//113
f 94//114 82//98 83//99 95//115
f 96//116 84//100 68//81 82//98
f 97//117 85//101 70//83 84//100
f 98//118 86//102 71//84 85//101
f 192//103 193//107 76//108 73//104
f 99//119 87//120 74//106 88//105
f 90//110 77//109 89//121 100//122
f 91//111 79//95 86//102 98//118
f 92//112 80//96 91//111 101//123
f 93//113 81//97 92//112 102//124
f 95//115 83//99 93//113 103//125
f 104//126 94//114 95//115 105//127
f 106//128 96//116 82//98 94//114
f 107//129 97//117 84//100 96//116
f 108//130 98//118 85//101 97//117
f 100//122 89//121 87//120 99//119
f 101//123 91//111 98//118 108//130
f 102//124 92//112 101//123 109//131
f 103//125 93//113 102//124 110//132
f 105//127 95//115 103//125 111//133
f 112//134 104//126 105//127 113//135
f 114//136 106//128 94//114 104//126
f 115//137 107//129 96//116 106//128
f 116//138 108//130 97//117 107//129
f 109//131 101//123 108//130 116//138
f 110//132 102//124 109//131 117//139
f 111//133 103//125 110//132 118//140
f 113//135 105//127 111//133 119//141
f 120//142 121//143 112//134 113//135 119//141 122//144 123//145 124//146
f 121//143 114//136 104//126 112//134
f 125//147 115//137 106//128 114//136
f 126//148 116//138 107//129 115//137
f 117//139 109//131 116//138 126//148
f 118//140 110//132 117//139 127//149
f 119//141 111//133 118//140 122//144
f 124//146 128//150 125//147 120//142
f 120//142 125//147 114//136 121//143
f 122//144 118//140 127//149 123//145
f 123//145 127//149 128//150 124//146
f 128//150 126//148 115//137 125//147
f 127//149 117//139 126//148 128//150
f 64//77 129//151 130//152 63//74
f 78//94 131//153 129//151 64//77
f 129//151 132//154 133//155 130//152
f 63//74 130//152 134//156 75//89
f 90//110 135//157 131//153 78//94
f 131//153 136//158 132//154 129//151
f 132//154 137//159 138//160 133//155
f 130//152 133//155 139//161 134//156
f 75//89 134//156 140//162 88//105
f 100//122 141//163 135//157 90//110
f 135//157 142//164 136//158 131//153
f 136//158 143//165 137//159 132//154
f 137//159 144//166 138//160
f 133//155 138//160 145//167 139//161
f 134//156 139//161 146//168 140//162
f 88//105 140//162 147//169 99//119
f 99//119 147//169 141//163 100//122
f 141//163 148//170 142//164 135//157
f 142//164 149//171 143//165 136//158
f 143//165 144//166 137//159
f 138//160 144//166 145//167
f 139//161 145//167 150//172 146//168
f 140//162 146//168 151//173 147//169
f 147//169 151//173 148//170 141//163
f 148//170 152//174 149//171 142//164
f 149//171 144//166 143//165
f 145//167 144//166 150//172
f 146//168 150//172 153//175 151//173
f 151//173 153//175 152//174 148//170
f 152//174 144//166 149//171
f 150//172 144//166 153//175
f 153//175 144//166 152//174
f 166//40 23//27 168//176 180//44
f 14//16 163//29 181//177 164//178
f 163//29 24//28 170//69 181//177
f 23//27 158//26 182//179 168//176
f 158//26 13//15 162//180 182//179
f 5//5 154//17 183//181 156//182
f 154//17 14//16 164//178 183//181
f 13//15 159//14 184//183 162//180
f 159//14 6//7 160//184 184//183
f 6//7 155//6 185//185 160//184
f 155//6 5//5 156//182 185//185
f 175//55 178//86 174//45 177//186
f 174//45 180//44 168//176 173//187
f 168//176 182//179 162//180 167//188
f 162//180 184//183 160//184 161//189
f 160//184 185//185 156//182 157//190
f 156//182 183//181 164//178 165//191
f 164//178 181//177 170//69 171//192
f 170//69 179//56 175//55 176//193
f 61//92 176//193 76//108
f 76//108 176//193 175//55
f 177//186 73//104 175//55
f 174//45 73//104 177//186
f 173//187 73//104 174//45
f 73//104 173//187 59//88
f 168//176 59//88 173//187
f 167//188 59//88 168//176
f 47//71 59//88 167//188
f 162//180 47//71 167//188
f 161//189 47//71 162//180
f 47//71 161//189 38//59
f 160//184 38//59 161//189
f 157//190 38//59 160//184
f 38//59 157//190 37//60
f 156//182 37//60 157//190
f 165//191 37//60 156//182
f 37//60 165//191 48//73
f 164//178 48//73 165//191
f 171//192 48//73 164//178
f 171//192 61//92 48//73
f 61//92 171//192 170//69
f 170//69 176//193 61//92
f 175//55 76//108 177//186
f 76//108 177//186 73//104
f 87//120 89//121 193//107 192//103
f 89//121 77//109 191//91 193//107
f 74//106 87//120 192//103 188//87
f 77//109 62//93 190//72 191//91
f 60//90 74//106 188//87 189//70
f 62//93 49//76 187//57 190//72
f 50//75 60//90 189//70 186//58
f 49//76 50//75 186//58 187//57
